<?xml version="1.0" encoding="UTF-8" standalone="no"?>
<!DOCTYPE svg PUBLIC "-//W3C//DTD SVG 1.1//EN" "http://www.w3.org/Graphics/SVG/1.1/DTD/svg11.dtd">
<svg width="100%" height="100%" viewBox="0 0 1024 1024" version="1.1" xmlns="http://www.w3.org/2000/svg" xmlns:xlink="http://www.w3.org/1999/xlink" xml:space="preserve" xmlns:serif="http://www.serif.com/" style="fill-rule:evenodd;clip-rule:evenodd;stroke-linejoin:round;stroke-miterlimit:1.41421;">
    <g transform="matrix(2,0,0,2,0,0)">
        <path id="help" d="M426.746,503.793C387.975,510.252 342.383,511.973 256,511.973C169.623,511.973 124.025,510.252 85.257,503.793C30.958,494.751 0,475.388 0,442.861C0,399.89 55.294,339.963 132.174,305.283C163.245,352.394 207.117,383.987 256,383.987C304.882,383.987 348.755,352.394 379.826,305.283C456.704,339.963 512,399.89 512,442.861C512,475.388 481.044,494.751 426.746,503.793ZM256,341.317C185.135,341.317 128.002,247.248 128.002,150.589C128.002,60.589 181.435,0 256,0C330.565,0 384.003,60.589 384.003,150.589C384.003,247.248 326.865,341.317 256,341.317ZM253.712,309.734C245.957,309.734 239.188,307.344 233.404,302.563C227.62,297.782 224.728,291.095 224.728,282.501C224.728,274.876 227.525,268.461 233.118,263.257C238.712,258.052 245.576,255.45 253.712,255.45C261.72,255.45 268.458,258.052 273.924,263.257C279.39,268.461 282.123,274.876 282.123,282.501C282.123,290.974 279.263,297.631 273.543,302.472C267.822,307.314 261.212,309.734 253.712,309.734ZM160.66,110.752C160.66,99.254 164.537,87.604 172.291,75.803C180.046,64.003 191.359,54.229 206.232,46.483C221.105,38.736 238.457,34.863 258.288,34.863C276.721,34.863 292.992,38.101 307.102,44.576C321.213,51.052 332.113,59.857 339.804,70.992C347.495,82.128 351.34,94.231 351.34,107.303C351.34,117.591 349.147,126.608 344.762,134.354C340.376,142.101 335.164,148.788 329.126,154.416C323.088,160.044 312.251,169.515 296.615,182.829C292.293,186.581 288.829,189.879 286.223,192.724C283.617,195.568 281.678,198.17 280.407,200.53C279.136,202.891 278.151,205.251 277.452,207.611C276.752,209.971 275.704,214.117 274.305,220.047C271.89,232.635 264.326,238.929 251.614,238.929C245.004,238.929 239.443,236.871 234.93,232.756C230.417,228.641 228.161,222.529 228.161,214.419C228.161,204.252 229.813,195.447 233.118,188.003C236.423,180.56 240.809,174.024 246.275,168.395C251.741,162.767 259.114,156.08 268.394,148.334C276.53,141.556 282.409,136.442 286.032,132.993C289.655,129.543 292.706,125.7 295.185,121.464C297.664,117.228 298.903,112.628 298.903,107.666C298.903,97.983 295.121,89.813 287.558,83.156C279.994,76.499 270.237,73.171 258.288,73.171C244.305,73.171 234.008,76.53 227.398,83.247C220.788,89.965 215.194,99.859 210.618,112.931C206.296,126.608 198.097,133.447 186.02,133.447C178.901,133.447 172.895,131.056 168.001,126.275C163.107,121.494 160.66,116.32 160.66,110.752Z" style="fill:rgb(113,123,132);"/>
    </g>
</svg>
