<?xml version="1.0" encoding="UTF-8" standalone="no"?>
<!DOCTYPE svg PUBLIC "-//W3C//DTD SVG 1.1//EN" "http://www.w3.org/Graphics/SVG/1.1/DTD/svg11.dtd">
<svg width="100%" height="100%" viewBox="0 0 1024 1024" version="1.1" xmlns="http://www.w3.org/2000/svg" xmlns:xlink="http://www.w3.org/1999/xlink" xml:space="preserve" xmlns:serif="http://www.serif.com/" style="fill-rule:evenodd;clip-rule:evenodd;stroke-linejoin:round;stroke-miterlimit:1.41421;">
    <g transform="matrix(2,0,0,2,0,0)">
        <g transform="matrix(21.3334,0,0,21.3334,-6229.37,-57941.7)">
            <g id="settings">
                <path id="Settings-Icon" serif:id="Settings Icon" d="M315,2730L312.749,2730C312.521,2731 312.113,2731.92 311.588,2732.76L313.192,2734.37C313.583,2734.76 313.583,2735.39 313.192,2735.78L311.778,2737.19C311.388,2737.58 310.755,2737.58 310.364,2737.19L308.769,2735.6C307.927,2736.13 307.002,2736.54 306,2736.77L306,2739C306,2739.55 305.552,2740 305,2740L303,2740C302.448,2740 302,2739.55 302,2739L302,2736.77C300.998,2736.54 300.073,2736.13 299.232,2735.6L297.636,2737.19C297.246,2737.58 296.612,2737.58 296.222,2737.19L294.808,2735.78C294.417,2735.39 294.417,2734.76 294.808,2734.37L296.412,2732.76C295.887,2731.92 295.479,2731 295.251,2730L293,2730C292.448,2730 292,2729.55 292,2729L292,2727C292,2726.45 292.448,2726 293,2726L295.251,2726C295.479,2725 295.887,2724.08 296.412,2723.24L294.808,2721.64C294.417,2721.25 294.417,2720.61 294.808,2720.22L296.222,2718.81C296.612,2718.42 297.246,2718.42 297.636,2718.81L299.232,2720.4C300.073,2719.87 300.998,2719.46 302,2719.23L302,2717C302,2716.45 302.448,2716 303,2716L305,2716C305.552,2716 306,2716.45 306,2717L306,2719.23C307.002,2719.46 307.927,2719.87 308.769,2720.4L310.364,2718.81C310.755,2718.42 311.388,2718.42 311.778,2718.81L313.192,2720.22C313.583,2720.61 313.583,2721.25 313.192,2721.64L311.588,2723.24C312.113,2724.08 312.521,2725 312.749,2726L315,2726C315.552,2726 316,2726.45 316,2727L316,2729C316,2729.55 315.552,2730 315,2730ZM304,2722C300.686,2722 298,2724.69 298,2728C298,2731.32 300.686,2734 304,2734C307.314,2734 310,2731.32 310,2728C310,2724.69 307.314,2722 304,2722ZM304,2731C302.343,2731 301,2729.66 301,2728C301,2726.34 302.343,2725 304,2725C305.657,2725 307,2726.34 307,2728C307,2729.66 305.657,2731 304,2731Z" style="fill:rgb(113,123,132);"/>
            </g>
        </g>
    </g>
</svg>
