<!DOCTYPE svg PUBLIC "-//W3C//DTD SVG 1.1//EN" "http://www.w3.org/Graphics/SVG/1.1/DTD/svg11.dtd">
<!-- Uploaded to: SVG Repo, www.svgrepo.com, Transformed by: SVG Repo Mixer Tools -->
<svg fill="#000000" width="800px" height="800px" viewBox="0 0 32 32" version="1.1" xmlns="http://www.w3.org/2000/svg" transform="matrix(-1, 0, 0, 1, 0, 0)">
<g id="SVGRepo_bgCarrier" stroke-width="0"/>
<g id="SVGRepo_tracerCarrier" stroke-linecap="round" stroke-linejoin="round"/>
<g id="SVGRepo_iconCarrier"> <title>magic</title> <path d="M9.5 9.625l-0.906 2.906-0.875-2.906-2.906-0.906 2.906-0.875 0.875-2.938 0.906 2.938 2.906 0.875zM14.563 8.031l-0.438 1.469-0.5-1.469-1.438-0.469 1.438-0.438 0.5-1.438 0.438 1.438 1.438 0.438zM0.281 24l17.906-17.375c0.125-0.156 0.313-0.25 0.531-0.25 0.281-0.031 0.563 0.063 0.781 0.281 0.094 0.063 0.219 0.188 0.406 0.344 0.344 0.313 0.719 0.688 1 1.063 0.125 0.188 0.188 0.344 0.188 0.5 0.031 0.313-0.063 0.594-0.25 0.781l-17.906 17.438c-0.156 0.156-0.344 0.219-0.563 0.25-0.281 0.031-0.563-0.063-0.781-0.281-0.094-0.094-0.219-0.188-0.406-0.375-0.344-0.281-0.719-0.656-0.969-1.063-0.125-0.188-0.188-0.375-0.219-0.531-0.031-0.313 0.063-0.563 0.281-0.781zM14.656 11.375l1.313 1.344 4.156-4.031-1.313-1.375zM5.938 13.156l-0.406 1.438-0.438-1.438-1.438-0.469 1.438-0.438 0.438-1.469 0.406 1.469 1.5 0.438zM20.5 12.063l0.469 1.469 1.438 0.438-1.438 0.469-0.469 1.438-0.469-1.438-1.438-0.469 1.438-0.438z"/> </g>
</svg>