<?xml version="1.0" encoding="UTF-8" standalone="no"?>
<!DOCTYPE svg PUBLIC "-//W3C//DTD SVG 1.1//EN" "http://www.w3.org/Graphics/SVG/1.1/DTD/svg11.dtd">
<svg width="100%" height="100%" viewBox="0 0 1024 1024" version="1.1" xmlns="http://www.w3.org/2000/svg" xmlns:xlink="http://www.w3.org/1999/xlink" xml:space="preserve" xmlns:serif="http://www.serif.com/" style="fill-rule:evenodd;clip-rule:evenodd;stroke-linejoin:round;stroke-miterlimit:1.41421;">
    <g transform="matrix(2,0,0,2,0,0)">
        <g id="Calendar">
            <path id="Calendar-groß" serif:id="Calendar groß" d="M455.711,462L56.289,462C25.222,462 0,436.778 0,405.711L0,136.289C0,105.223 25.222,80 56.289,80L81.959,80C81.959,88.742 81.973,97.483 82.001,106.225C82.091,115.768 86.143,125.008 93.006,131.475C101.782,139.743 114.983,142.965 126.575,139.67C141.096,135.542 151.856,121.296 151.999,106.225C152.027,97.483 152.041,88.742 152.041,80L359.959,80C359.959,88.742 359.973,97.484 360.001,106.226C360.093,115.769 364.154,125.02 371.007,131.475C379.783,139.743 392.983,142.965 404.575,139.67C419.096,135.542 429.858,121.283 429.999,106.225C430.027,97.483 430.041,88.742 430.041,80L455.711,80C486.778,80 512,105.223 512,136.289L512,405.711C512,436.776 486.78,461.997 455.711,462ZM470,166L42,166L42,420L470,420L470,166ZM401.25,396.876L359.75,396.876C348.29,396.876 339,387.584 339,376.122L339,334.624C339,323.17 348.29,313.874 359.75,313.874L401.25,313.874C412.709,313.874 421.999,323.17 421.999,334.624L421.999,376.122C421.999,387.583 412.71,396.875 401.25,396.876ZM276.75,396.876L235.251,396.876C223.79,396.876 214.5,387.584 214.5,376.122L214.5,334.624C214.5,323.17 223.79,313.874 235.251,313.874L276.75,313.874C288.21,313.874 297.5,323.17 297.5,334.624L297.5,376.122C297.5,387.583 288.211,396.875 276.75,396.876ZM152.25,396.876L110.75,396.876C99.292,396.876 90.001,387.584 90.001,376.122L90.001,334.624C90.001,323.17 99.292,313.874 110.75,313.874L152.25,313.874C163.711,313.874 173.001,323.17 173.001,334.624L173.001,376.122C173.001,387.583 163.712,396.875 152.25,396.876ZM401.25,272.377L359.75,272.377C348.29,272.377 339,263.085 339,251.622L339,210.125C339,198.663 348.29,189.374 359.75,189.374L401.25,189.374C412.709,189.374 421.999,198.663 421.999,210.125L421.999,251.622C421.999,263.084 412.71,272.376 401.25,272.377ZM276.75,272.377L235.251,272.377C223.79,272.377 214.5,263.085 214.5,251.622L214.5,210.125C214.5,198.663 223.79,189.374 235.251,189.374L276.75,189.374C288.21,189.374 297.5,198.663 297.5,210.125L297.5,251.622C297.5,263.084 288.211,272.376 276.75,272.377ZM152.25,272.377L110.75,272.377C99.292,272.377 90.001,263.085 90.001,251.622L90.001,210.125C90.001,198.663 99.292,189.374 110.75,189.374L152.25,189.374C163.711,189.374 173.001,198.663 173.001,210.125L173.001,251.622C173.001,263.084 163.712,272.376 152.25,272.377ZM142.123,80C142.123,88.719 142.082,97.437 141.999,106.154C141.919,119.558 131.266,130.475 117.966,130.982C117.645,130.994 117.323,131 117,131C103.31,131 92.175,119.972 92.002,106.323C92.002,106.323 92,106.162 92,106.162L92,106.148C91.918,97.432 91.905,88.716 91.918,80L92,80L92,54C92,40.202 103.202,29 117,29C130.798,29 142,40.202 142,54L142,80L142.123,80ZM420.123,80C420.123,88.719 420.082,97.437 420,106.154C419.917,119.881 408.747,131 395,131C381.252,131 370.08,119.878 370.001,106.148C369.918,97.432 369.905,88.716 369.918,80L370,80L370,54C370,40.202 381.202,29 395,29C408.798,29 420,40.202 420,54L420,80L420.123,80Z" style="fill:rgb(113,123,132);"/>
        </g>
    </g>
</svg>
