<?xml version="1.0" encoding="UTF-8" standalone="no"?><!DOCTYPE svg PUBLIC "-//W3C//DTD SVG 1.1//EN" "http://www.w3.org/Graphics/SVG/1.1/DTD/svg11.dtd"><svg width="100%" height="100%" viewBox="0 0 512 512" version="1.1" xmlns="http://www.w3.org/2000/svg" xmlns:xlink="http://www.w3.org/1999/xlink" xml:space="preserve" xmlns:serif="http://www.serif.com/" style="fill-rule:evenodd;clip-rule:evenodd;stroke-linejoin:round;stroke-miterlimit:1.41421;"><path id="Time-Icon" serif:id="Time Icon" d="M399.101,510.794c-62.351,0 -112.897,-50.544 -112.897,-112.899c0,-62.351 50.546,-112.895 112.897,-112.895c62.352,0 112.899,50.544 112.899,112.895c0,62.355 -50.547,112.899 -112.899,112.899Zm0,-196.341c-46.086,0 -83.447,37.358 -83.447,83.442c0,46.086 37.361,83.45 83.447,83.45c46.086,0 83.445,-37.364 83.445,-83.45c0,-46.084 -37.359,-83.442 -83.445,-83.442Zm49.086,98.17l-49.086,0c-8.133,0 -14.726,-6.591 -14.726,-14.728l0,-49.083c0,-8.132 6.593,-14.726 14.726,-14.726c8.133,0 14.726,6.594 14.726,14.726l0,34.359l34.36,0c8.132,0 14.725,6.594 14.725,14.724c0,8.137 -6.593,14.728 -14.725,14.728Z" style="fill:#00b10d;"/><path d="M256,436.5l-205.845,0c-27.681,0 -50.155,-22.474 -50.155,-50.155l0,-240.062c0,-27.681 22.474,-50.155 50.155,-50.155l22.873,0c0,7.789 0.012,15.578 0.037,23.367c0.081,8.503 3.691,16.737 9.806,22.499c7.819,7.366 19.582,10.238 29.911,7.301c12.939,-3.678 22.526,-16.371 22.653,-29.8c0.025,-7.789 0.038,-15.578 0.038,-23.367l185.26,0c0,7.789 0.012,15.579 0.037,23.368c0.082,8.503 3.701,16.746 9.807,22.498c7.819,7.366 19.582,10.238 29.91,7.301c12.939,-3.678 22.528,-16.383 22.654,-29.8c0.025,-7.789 0.037,-15.578 0.037,-23.367l22.873,0c27.681,0 50.155,22.474 50.155,50.155l0,109.717l-37.423,0l0,-83.244l-381.36,0l0,226.321l218.577,0l0,37.423Zm-8.588,-51.37l-38.617,0c-10.665,0 -19.31,-8.646 -19.31,-19.313l0,-38.615c0,-10.66 8.645,-19.31 19.31,-19.31l38.617,0c10.664,0 19.309,8.65 19.309,19.31l0,38.615c0,10.665 -8.642,19.311 -19.309,19.313Zm-115.855,0l-38.617,0c-10.663,0 -19.309,-8.646 -19.309,-19.313l0,-38.615c0,-10.66 8.646,-19.31 19.309,-19.31l38.617,0c10.665,0 19.31,8.65 19.31,19.31l0,38.615c0,10.665 -8.642,19.311 -19.31,19.313Zm231.709,-115.854l-38.618,0c-10.664,0 -19.308,-8.646 -19.308,-19.313l0,-38.616c0,-10.666 8.644,-19.309 19.308,-19.309l38.618,0c10.664,0 19.309,8.643 19.309,19.309l0,38.616c0,10.665 -8.643,19.311 -19.309,19.313Zm-115.854,0l-38.617,0c-10.665,0 -19.31,-8.646 -19.31,-19.313l0,-38.616c0,-10.666 8.645,-19.309 19.31,-19.309l38.617,0c10.664,0 19.309,8.643 19.309,19.309l0,38.616c0,10.665 -8.642,19.311 -19.309,19.313Zm-115.855,0l-38.617,0c-10.663,0 -19.309,-8.646 -19.309,-19.313l0,-38.616c0,-10.666 8.646,-19.309 19.309,-19.309l38.617,0c10.665,0 19.31,8.643 19.31,19.309l0,38.616c0,10.665 -8.642,19.311 -19.31,19.313Zm-4.922,-173.148c0,7.771 -0.036,15.537 -0.11,23.304c-0.072,11.943 -9.564,21.671 -21.414,22.122c-0.286,0.011 -0.573,0.016 -0.861,0.016c-12.198,0 -22.119,-9.826 -22.274,-21.988c0,0 -0.001,-0.143 -0.001,-0.143l0,-0.012c-0.073,-7.766 -0.086,-15.533 -0.073,-23.299l0.072,0l0,-23.167c0,-12.294 9.982,-22.275 22.276,-22.275c12.294,0 22.276,9.981 22.276,22.275l0,23.167l0.109,0Zm247.706,0c0,7.771 -0.037,15.537 -0.11,23.304c-0.074,12.231 -10.027,22.138 -22.275,22.138c-12.251,0 -22.204,-9.91 -22.276,-22.143c-0.073,-7.766 -0.085,-15.533 -0.073,-23.299l0.073,0l0,-23.167c0,-12.294 9.981,-22.275 22.276,-22.275c12.294,0 22.275,9.981 22.275,22.275l0,23.167l0.11,0Z"/></svg>