<?xml version="1.0" encoding="UTF-8" standalone="no"?><!DOCTYPE svg PUBLIC "-//W3C//DTD SVG 1.1//EN" "http://www.w3.org/Graphics/SVG/1.1/DTD/svg11.dtd"><svg width="100%" height="100%" viewBox="0 0 512 512" version="1.1" xmlns="http://www.w3.org/2000/svg" xmlns:xlink="http://www.w3.org/1999/xlink" xml:space="preserve" xmlns:serif="http://www.serif.com/" style="fill-rule:evenodd;clip-rule:evenodd;stroke-linejoin:round;stroke-miterlimit:1.41421;"><path d="M455.711,462l-399.422,0c-31.067,0 -56.289,-25.222 -56.289,-56.289l0,-269.422c0,-31.066 25.222,-56.289 56.289,-56.289l25.67,0c0,8.742 0.014,17.483 0.042,26.225c0.09,9.543 4.142,18.783 11.005,25.25c8.776,8.268 21.977,11.49 33.569,8.195c14.521,-4.128 25.281,-18.374 25.424,-33.445c0.028,-8.742 0.042,-17.483 0.042,-26.225l207.918,0c0,8.742 0.014,17.484 0.042,26.226c0.092,9.543 4.153,18.794 11.006,25.249c8.776,8.268 21.976,11.49 33.568,8.195c14.521,-4.128 25.283,-18.387 25.424,-33.445c0.028,-8.742 0.042,-17.483 0.042,-26.225l25.67,0c31.067,0 56.289,25.223 56.289,56.289l0,269.422c0,31.065 -25.22,56.286 -56.289,56.289Zm14.289,-296l-428,0l0,254l428,0l0,-254Zm-68.75,230.876l-41.5,0c-11.46,0 -20.75,-9.292 -20.75,-20.754l0,-41.498c0,-11.454 9.29,-20.75 20.75,-20.75l41.5,0c11.459,0 20.749,9.296 20.749,20.75l0,41.498c0,11.461 -9.289,20.753 -20.749,20.754Zm-124.5,0l-41.499,0c-11.461,0 -20.751,-9.292 -20.751,-20.754l0,-41.498c0,-11.454 9.29,-20.75 20.751,-20.75l41.499,0c11.46,0 20.75,9.296 20.75,20.75l0,41.498c0,11.461 -9.289,20.753 -20.75,20.754Zm-124.5,0l-41.5,0c-11.458,0 -20.749,-9.292 -20.749,-20.754l0,-41.498c0,-11.454 9.291,-20.75 20.749,-20.75l41.5,0c11.461,0 20.751,9.296 20.751,20.75l0,41.498c0,11.461 -9.289,20.753 -20.751,20.754Zm249,-124.499l-41.5,0c-11.46,0 -20.75,-9.292 -20.75,-20.755l0,-41.497c0,-11.462 9.29,-20.751 20.75,-20.751l41.5,0c11.459,0 20.749,9.289 20.749,20.751l0,41.497c0,11.462 -9.289,20.754 -20.749,20.755Zm-124.5,0l-41.499,0c-11.461,0 -20.751,-9.292 -20.751,-20.755l0,-41.497c0,-11.462 9.29,-20.751 20.751,-20.751l41.499,0c11.46,0 20.75,9.289 20.75,20.751l0,41.497c0,11.462 -9.289,20.754 -20.75,20.755Zm-124.5,0l-41.5,0c-11.458,0 -20.749,-9.292 -20.749,-20.755l0,-41.497c0,-11.462 9.291,-20.751 20.749,-20.751l41.5,0c11.461,0 20.751,9.289 20.751,20.751l0,41.497c0,11.462 -9.289,20.754 -20.751,20.755Zm-10.127,-192.377c0,8.719 -0.041,17.437 -0.124,26.154c-0.08,13.404 -10.733,24.321 -24.033,24.828c-0.321,0.012 -0.643,0.018 -0.966,0.018c-13.69,0 -24.825,-11.028 -24.998,-24.677c0,0 -0.002,-0.161 -0.002,-0.161l0,-0.014c-0.082,-8.716 -0.095,-17.432 -0.082,-26.148l0.082,0l0,-26c0,-13.798 11.202,-25 25,-25c13.798,0 25,11.202 25,25l0,26l0.123,0Zm278,0c0,8.719 -0.041,17.437 -0.123,26.154c-0.083,13.727 -11.253,24.846 -25,24.846c-13.748,0 -24.92,-11.122 -24.999,-24.852c-0.083,-8.716 -0.096,-17.432 -0.083,-26.148l0.082,0l0,-26c0,-13.798 11.202,-25 25,-25c13.798,0 25,11.202 25,25l0,26l0.123,0Z" style="fill:#fff;"/></svg>