<?xml version="1.0" encoding="UTF-8" standalone="no"?><!DOCTYPE svg PUBLIC "-//W3C//DTD SVG 1.1//EN" "http://www.w3.org/Graphics/SVG/1.1/DTD/svg11.dtd"><svg width="100%" height="100%" viewBox="0 0 512 512" version="1.1" xmlns="http://www.w3.org/2000/svg" xmlns:xlink="http://www.w3.org/1999/xlink" xml:space="preserve" xmlns:serif="http://www.serif.com/" style="fill-rule:evenodd;clip-rule:evenodd;stroke-linejoin:round;stroke-miterlimit:1.41421;"><path id="status" d="M255.998,512c-141.384,0 -255.998,-114.61 -255.998,-255.997c0,-141.38 114.614,-256.003 255.998,-256.003c141.385,0 256,114.623 256,256.003c0,141.387 -114.615,255.997 -256,255.997Zm134.83,-346.959c-13.108,-12.571 -34.353,-12.571 -47.455,0l-119.337,113.332l-34.094,-31.713c-13.104,-12.552 -34.35,-12.552 -47.453,0c-13.104,12.595 -13.104,32.972 0,45.537l57.818,54.466c13.11,12.583 34.352,12.583 47.455,0l143.066,-136.079c13.099,-12.565 13.099,-32.967 0,-45.543Z" style="fill:#fff;"/></svg>