<?xml version="1.0" encoding="UTF-8" standalone="no"?>
<!DOCTYPE svg PUBLIC "-//W3C//DTD SVG 1.1//EN" "http://www.w3.org/Graphics/SVG/1.1/DTD/svg11.dtd">
<svg width="100%" height="100%" viewBox="0 0 512 512" version="1.1" xmlns="http://www.w3.org/2000/svg" xmlns:xlink="http://www.w3.org/1999/xlink" xml:space="preserve" xmlns:serif="http://www.serif.com/" style="fill-rule:evenodd;clip-rule:evenodd;stroke-linejoin:round;stroke-miterlimit:2;">
    <path id="Cancel" d="M255.934,0.154C397.181,0.154 511.856,114.829 511.856,256.077C511.856,397.325 397.181,512 255.934,512C114.686,512 0.011,397.325 0.011,256.077C0.011,114.829 114.686,0.154 255.934,0.154ZM255.934,223.541L353.527,125.948C362.519,116.956 377.03,116.887 386.077,125.934C395.062,134.918 395.112,149.435 386.063,158.484L288.469,256.077L386.063,353.671C395.055,362.663 395.124,377.173 386.077,386.221C377.093,395.205 362.576,395.255 353.527,386.206L255.934,288.613L158.34,386.206C149.348,395.199 134.837,395.268 125.79,386.221C116.806,377.236 116.755,362.719 125.804,353.67L223.398,256.077L125.804,158.484C116.812,149.491 116.743,134.981 125.79,125.934C134.775,116.949 149.291,116.899 158.34,125.948L255.934,223.541Z" style="fill:rgb(255,0,0);"/>
</svg>
