<?xml version="1.0" encoding="UTF-8" standalone="no"?><!DOCTYPE svg PUBLIC "-//W3C//DTD SVG 1.1//EN" "http://www.w3.org/Graphics/SVG/1.1/DTD/svg11.dtd"><svg width="100%" height="100%" viewBox="0 0 512 512" version="1.1" xmlns="http://www.w3.org/2000/svg" xmlns:xlink="http://www.w3.org/1999/xlink" xml:space="preserve" xmlns:serif="http://www.serif.com/" style="fill-rule:evenodd;clip-rule:evenodd;stroke-linejoin:round;stroke-miterlimit:1.41421;"><path d="M426.746,503.793c-38.771,6.459 -84.363,8.18 -170.746,8.18c-86.377,0 -131.975,-1.721 -170.743,-8.18c-54.299,-9.042 -85.257,-28.405 -85.257,-60.932c0,-42.971 55.294,-102.898 132.174,-137.578c31.071,47.111 74.943,78.704 123.826,78.704c48.882,0 92.755,-31.593 123.826,-78.704c76.878,34.68 132.174,94.607 132.174,137.578c0,32.527 -30.956,51.89 -85.254,60.932Zm-170.746,-162.476c-70.865,0 -127.998,-94.069 -127.998,-190.728c0,-90 53.433,-150.589 127.998,-150.589c74.565,0 128.003,60.589 128.003,150.589c0,96.659 -57.138,190.728 -128.003,190.728Zm-2.288,-31.583c-7.755,0 -14.524,-2.39 -20.308,-7.171c-5.784,-4.781 -8.676,-11.468 -8.676,-20.062c0,-7.625 2.797,-14.04 8.39,-19.244c5.594,-5.205 12.458,-7.807 20.594,-7.807c8.008,0 14.746,2.602 20.212,7.807c5.466,5.204 8.199,11.619 8.199,19.244c0,8.473 -2.86,15.13 -8.58,19.971c-5.721,4.842 -12.331,7.262 -19.831,7.262Zm-93.052,-198.982c0,-11.498 3.877,-23.148 11.631,-34.949c7.755,-11.8 19.068,-21.574 33.941,-29.32c14.873,-7.747 32.225,-11.62 52.056,-11.62c18.433,0 34.704,3.238 48.814,9.713c14.111,6.476 25.011,15.281 32.702,26.416c7.691,11.136 11.536,23.239 11.536,36.311c0,10.288 -2.193,19.305 -6.578,27.051c-4.386,7.747 -9.598,14.434 -15.636,20.062c-6.038,5.628 -16.875,15.099 -32.511,28.413c-4.322,3.752 -7.786,7.05 -10.392,9.895c-2.606,2.844 -4.545,5.446 -5.816,7.806c-1.271,2.361 -2.256,4.721 -2.955,7.081c-0.7,2.36 -1.748,6.506 -3.147,12.436c-2.415,12.588 -9.979,18.882 -22.691,18.882c-6.61,0 -12.171,-2.058 -16.684,-6.173c-4.513,-4.115 -6.769,-10.227 -6.769,-18.337c0,-10.167 1.652,-18.972 4.957,-26.416c3.305,-7.443 7.691,-13.979 13.157,-19.608c5.466,-5.628 12.839,-12.315 22.119,-20.061c8.136,-6.778 14.015,-11.892 17.638,-15.341c3.623,-3.45 6.674,-7.293 9.153,-11.529c2.479,-4.236 3.718,-8.836 3.718,-13.798c0,-9.683 -3.782,-17.853 -11.345,-24.51c-7.564,-6.657 -17.321,-9.985 -29.27,-9.985c-13.983,0 -24.28,3.359 -30.89,10.076c-6.61,6.718 -12.204,16.612 -16.78,29.684c-4.322,13.677 -12.521,20.516 -24.598,20.516c-7.119,0 -13.125,-2.391 -18.019,-7.172c-4.894,-4.781 -7.341,-9.955 -7.341,-15.523Z" style="fill:#fff;"/></svg>