<?xml version="1.0" encoding="UTF-8" standalone="no"?><!DOCTYPE svg PUBLIC "-//W3C//DTD SVG 1.1//EN" "http://www.w3.org/Graphics/SVG/1.1/DTD/svg11.dtd"><svg width="100%" height="100%" viewBox="0 0 512 512" version="1.1" xmlns="http://www.w3.org/2000/svg" xmlns:xlink="http://www.w3.org/1999/xlink" xml:space="preserve" xmlns:serif="http://www.serif.com/" style="fill-rule:evenodd;clip-rule:evenodd;stroke-linejoin:round;stroke-miterlimit:1.41421;"><g id="settings"><path id="Settings-Icon" serif:id="Settings Icon" d="M490.667,298.667l-48.023,0c-4.859,21.261 -13.56,40.937 -24.767,58.875l34.226,34.231c8.332,8.321 8.332,21.828 0,30.161l-30.169,30.168c-8.332,8.333 -21.838,8.333 -30.17,0l-34.037,-34.035c-17.95,11.355 -37.679,20.149 -59.064,25.016l0,47.591c0,11.769 -9.548,21.326 -21.332,21.326l-42.664,0c-11.782,0 -21.335,-9.557 -21.335,-21.326l0,-47.591c-21.386,-4.867 -41.109,-13.661 -59.059,-25.016l-34.037,34.035c-8.332,8.333 -21.843,8.333 -30.172,0l-30.169,-30.168c-8.334,-8.333 -8.334,-21.84 0,-30.161l34.226,-34.231c-11.21,-17.938 -19.908,-37.614 -24.765,-58.875l-48.028,0c-11.776,0 -21.33,-9.557 -21.33,-21.326l0,-42.676c0,-11.781 9.554,-21.326 21.33,-21.326l48.028,0c4.857,-21.261 13.555,-40.932 24.765,-58.869l-34.226,-34.231c-8.334,-8.339 -8.334,-21.84 0,-30.173l30.169,-30.174c8.329,-8.333 21.84,-8.333 30.172,0l34.037,34.035c17.95,-11.343 37.673,-20.137 59.059,-25.01l0,-47.579c0,-11.787 9.553,-21.338 21.335,-21.338l42.664,0c11.784,0 21.332,9.551 21.332,21.338l0,47.579c21.385,4.873 41.114,13.667 59.064,25.01l34.037,-34.035c8.332,-8.333 21.838,-8.333 30.17,0l30.169,30.174c8.332,8.333 8.332,21.834 0,30.173l-34.226,34.231c11.207,17.937 19.908,37.608 24.767,58.869l48.023,0c11.783,0 21.335,9.545 21.335,21.326l0,42.676c0,11.769 -9.552,21.326 -21.335,21.326Zm-234.669,-170.663c-70.694,0 -127.999,57.302 -127.999,127.987c0,70.709 57.305,128.01 127.999,128.01c70.695,0 128.003,-57.301 128.003,-128.01c0,-70.685 -57.308,-127.987 -128.003,-127.987Zm0,192.001c-35.344,0 -64.001,-28.665 -64.001,-64.014c0,-35.342 28.657,-63.996 64.001,-63.996c35.348,0 64,28.654 64,63.996c0,35.349 -28.652,64.014 -64,64.014Z" style="fill:#fff;"/></g></svg>